<svg xmlns="http://www.w3.org/2000/svg" width="71.9" height="34.09" viewBox="0 0 71.9 34.09">
  <title>aoa-logo-alone</title>
  <g>
    <path d="M38.59,33.61" fill="#231f20"/>
    <polygon points="38.91 25.13 38.91 25.13 38.91 25.13 38.91 25.13" fill="#fff"/>
    <polygon points="38.13 31.76 38.13 31.76 38.13 31.76 38.13 31.76" fill="#fff"/>
    <path d="M38.8,31.77a3.4,3.4,0,0,0,.5-.08,17.94,17.94,0,0,0,2.25-.54c.42-.13.84-.28,1.23-.44a15.39,15.39,0,0,0,3.57-2,15.16,15.16,0,0,0,2.25-2.09,15.58,15.58,0,0,0,1.3-1.72,15.77,15.77,0,0,0,1.25-2.33H63.24l.19.49a51.13,51.13,0,0,1,2.51,7.42l-4.23.61h-.16v.82H71.9v-.82h-.15l-3.09-.68a39.49,39.49,0,0,1-2.39-5L56.94,1.72H55l-3.84,9.21c-2.55-5.84-8.26-9.37-15-9.37h-.32c-6.8,0-12.5,3.58-15,9.37L16.94,1.72H15L5.63,25.46a39.48,39.48,0,0,1-2.39,5l-3.09.63H0v.81H10.34v-.81h-.16L6,30.46a51,51,0,0,1,2.46-7.37l.19-.49H20.74A15.69,15.69,0,0,0,22,24.9a15.4,15.4,0,0,0,1.3,1.72,15.11,15.11,0,0,0,2.25,2.09,15.4,15.4,0,0,0,3.57,2c.39.16.81.3,1.23.44a17.93,17.93,0,0,0,2.25.54c.37.07.78.12,1.2.17H34a12.36,12.36,0,0,0,2.41.07l-1.1-1.65h-.23a11.12,11.12,0,0,1-9-6.12,13.26,13.26,0,0,1-.68-1.55,17.31,17.31,0,0,1-1-5.88,14.57,14.57,0,0,1,3.35-9.9,10.69,10.69,0,0,1,7.87-3.61h.47A10.69,10.69,0,0,1,44,6.83a14.57,14.57,0,0,1,3.35,9.9,17.28,17.28,0,0,1-1,5.88,13,13,0,0,1-.68,1.55A11.13,11.13,0,0,1,37,30.26,2.84,2.84,0,0,1,38.8,31.77ZM14.8,21a46.47,46.47,0,0,1-5.39-.25l.45-1.16c1.15-3,3.24-8.34,4.76-11.42L20,20.77A48,48,0,0,1,14.8,21ZM31,3.43h0a13.62,13.62,0,0,0-4.88,3.13,14.26,14.26,0,0,0-4,8.41A15.7,15.7,0,0,0,22,17,14.27,14.27,0,0,0,28.1,28.59a13.83,13.83,0,0,0,3.14,1.61c.09,0,.16.12.14.21s-.2.08-.37,0l-.28-.09h0a14.8,14.8,0,0,1-2-.84,15.13,15.13,0,0,1-7.08-7.6l-1.82-4.37L15,5.91l.59-1.52,4.29,10.29.66,1.59h.12a13.55,13.55,0,0,1,.64-3.55,15,15,0,0,1,5.19-7.25A14.79,14.79,0,0,1,31,3.09h.34A3.63,3.63,0,0,1,31,3.43ZM50.25,21.88a15.14,15.14,0,0,1-7.08,7.6,14.76,14.76,0,0,1-2.31.94h-.35s.06-.16.15-.21a13.84,13.84,0,0,0,3.13-1.6A14.26,14.26,0,0,0,49.91,17a15.86,15.86,0,0,0-.14-2,14.27,14.27,0,0,0-4-8.41,13.61,13.61,0,0,0-4.88-3.13h0s-.41-.12-.37-.31.17-.08.32,0a14.78,14.78,0,0,1,4.58,2.37,15,15,0,0,1,5.19,7.25,13.55,13.55,0,0,1,.64,3.55h.12L52,14.68,56.31,4.39l.59,1.52-4.83,11.6ZM57.14,21A48,48,0,0,1,52,20.77l5.34-12.6c1.53,3.08,3.66,8.47,4.76,11.42l.45,1.17A46.47,46.47,0,0,1,57.14,21Z" fill="#006"/>
    <path d="M29.57,10.09a1.9,1.9,0,0,1,2.07,1.71V12c0,1.71-1.27,2.11-2.38,2.11H27.19v-.22c.28,0,.47-.06.49-.14a.79.79,0,0,0,0-.25V10.72a.82.82,0,0,0,0-.25c0-.08-.21-.13-.49-.14v-.24Zm-.67,3.17c0,.5,0,.46.26.46.67,0,1.28-.32,1.28-1.75,0-1.08-.49-1.53-1.44-1.53h-.1Z" fill="#006"/>
    <path d="M40.77,12A2.12,2.12,0,0,1,43,10a2,2,0,0,1,2,2,2.15,2.15,0,0,1-2.18,2.12h0a2,2,0,0,1-2-2A.4.4,0,0,1,40.77,12Zm3,.1c0-1.29-.51-1.75-1-1.75s-.77.24-.77,1.49.4,1.9.91,1.9.86-.11.86-1.62Z" fill="#006"/>
    <path d="M37.86,34A2.39,2.39,0,0,0,38,33a2.21,2.21,0,0,0-.14-.8h0a2.57,2.57,0,0,0-1.54-1.44L36,30.65a1.79,1.79,0,0,1-.42-.19,1.58,1.58,0,0,1-.81-1.26v-.29A7.65,7.65,0,0,1,35,27a.2.2,0,0,0-.15-.09c-.13,0-.49.06-1,.91a3.52,3.52,0,0,0-.5,2.85,2.84,2.84,0,0,0,2,1.6l.5.17.61.26a1.93,1.93,0,0,1,1.14,1.27S37.66,34.21,37.86,34Z" fill="#006"/>
    <path d="M38.69,25.62h0a2.78,2.78,0,0,0-2-1.53L36,23.92a4.11,4.11,0,0,1-.87-.27,1.3,1.3,0,0,1-.84-1.18V22.3a9,9,0,0,1,.34-2.09.09.09,0,0,0-.07-.1,2.06,2.06,0,0,0-1.14,1,3.21,3.21,0,0,0-.51,2.83,3,3,0,0,0,2.41,1.61h.09l.28,4.1h0l.18.1.14.06h.11l.19.06.22-4,.11.06c.51.28.77.62.77,1a.91.91,0,0,1,0,.13c-.08.59-.35,1.86-.44,2.19v.08c.16,0,.65-.71.89-1a3.92,3.92,0,0,0,.88-2.17A1.69,1.69,0,0,0,38.69,25.62Z" fill="#006"/>
    <path d="M39.09,18.59a2.85,2.85,0,0,0-2.18-1.5,7,7,0,0,0-.89-.16,7.6,7.6,0,0,1-1.27-.34,1.19,1.19,0,0,1-.88-1v-.17a8.75,8.75,0,0,1,.34-2.09c0-.09-.06-.1-.07-.1a2.06,2.06,0,0,0-1.14,1,3.8,3.8,0,0,0-.7,2,2,2,0,0,0,.13.72A3.36,3.36,0,0,0,35,18.56h0c.06.92.26,3.8.26,3.9l.42.16.25.07h.3l.34.08c0-.18.15-3,.19-3.87l.15.06a1.18,1.18,0,0,1,.82,1.13v.11a6.89,6.89,0,0,1-.46,2.15c0,.08,0,.1.06.1a2.4,2.4,0,0,0,1.08-1,4.42,4.42,0,0,0,.8-2.21A2,2,0,0,0,39.09,18.59Z" fill="#006"/>
    <path d="M42.31,8.38a6.72,6.72,0,0,0-.9-1.86,3.3,3.3,0,0,0-1.11-1,5,5,0,0,0-2-.42h-.08a4.87,4.87,0,0,0-4.12-1,3.39,3.39,0,0,0-2.8,3.58h0c0,2.46,1.67,3.18,3.27,3.57h0c.06.95.27,4,.28,4.08a5.78,5.78,0,0,0,.6.22l.37.09h.25a7.57,7.57,0,0,1,.78.15c0-.2.09-3.16.11-4l.18.07a1.15,1.15,0,0,1,.83,1V13a7.14,7.14,0,0,1-.46,2.12.08.08,0,0,0,.07.09h0a2.06,2.06,0,0,0,1.14-1,3.2,3.2,0,0,0,.59-2.65,3,3,0,0,0-2.17-1.67,9.15,9.15,0,0,0-1.26-.29,4.53,4.53,0,0,1-1.58-.48,1.79,1.79,0,0,1-1-1.59,1.7,1.7,0,0,1,.84-1.41l.18-.1.16,2a4.06,4.06,0,0,0,.76.35l.49.13h.13a11.21,11.21,0,0,1,1.25.27c0-.21.1-1.77.1-1.81a.62.62,0,0,0,0-.28l-.06-.1h0l.28.32a5.14,5.14,0,0,1,.42.64,2.35,2.35,0,0,0,.26.39c1,.9,2.41.83,4.08.65a.32.32,0,0,0,.12-.19Z" fill="#006"/>
    <path d="M35.66,3.19a7.43,7.43,0,0,1,1.65.11l.1-2.21c0-.83-1-1-1.61-1.06a1.68,1.68,0,0,0-1.47.43,1.17,1.17,0,0,0-.23.76s.09,2,.1,2.18A12.64,12.64,0,0,1,35.66,3.19Z" fill="#006"/>
    <path d="M64.5,8.28A3.25,3.25,0,1,1,67.75,5,3.25,3.25,0,0,1,64.5,8.28Zm0-5.89a2.65,2.65,0,1,0,2.6,2.7V5A2.63,2.63,0,0,0,64.5,2.39Zm1.64,4.36h-.77L64.72,5.5h-.87V6.74h-.67V3.16H64.9a1.12,1.12,0,0,1,1.23,1.17,1.12,1.12,0,0,1-.75,1.09ZM64.9,4.88a.51.51,0,0,0,.56-.55A.49.49,0,0,0,65,3.78H63.85v1.1Z" fill="#006"/>
  </g>
</svg>
