<svg xmlns="http://www.w3.org/2000/svg" width="306.14" height="39.29" viewBox="0 0 306.14 39.29">
  <title>aoa-logo-white</title>
  <path d="M86.94,0V39.29" transform="translate(0)" fill="#22205f" stroke="#fff" opacity="0.8" style="isolation: isolate"/>
  <g>
    <path d="M104.93,24a3.46,3.46,0,0,1,3.62,3.8c0,2.23-1.28,3.84-3.62,3.84s-3.62-1.58-3.62-3.84S102.58,24,104.93,24Zm0,6.48c1.51,0,2.07-1.34,2.07-2.68s-.6-2.64-2.07-2.64-2.08,1.33-2.08,2.64.56,2.67,2.08,2.67Zm11.92-5a3.82,3.82,0,0,0-1.5-.32,1,1,0,0,0-1.16,1c0,1.28,3.24.74,3.24,3.22,0,1.62-1.28,2.23-2.77,2.23a6.52,6.52,0,0,1-1.9-.29L112.9,30a3.57,3.57,0,0,0,1.67.46c.56,0,1.31-.29,1.31-1,0-1.41-3.24-.83-3.24-3.27,0-1.65,1.28-2.25,2.58-2.25a5.53,5.53,0,0,1,1.77.27Zm6.23-.19H121V24.17h5.72v1.17H124.6v6.22h-1.48Zm7.52-1.17H135v1.17h-2.88v1.82h2.68v1.16h-2.64v2.07H135v1.17h-4.38ZM142.76,24a3.46,3.46,0,0,1,3.62,3.8c0,2.23-1.28,3.84-3.62,3.84s-3.62-1.58-3.62-3.84S140.37,24,142.76,24Zm0,6.48c1.51,0,2.08-1.34,2.08-2.68s-.6-2.64-2.08-2.64-2.08,1.33-2.08,2.64.53,2.67,2.08,2.67Zm7.78-6.36h1.87c1.61,0,3.08.46,3.08,2.23s-1.26,2.35-2.85,2.35H152v2.81h-1.48ZM152,27.59h.52c.74,0,1.41-.24,1.41-1.1s-.65-1.15-1.41-1.15H152Zm8.85-3.42h1.67l2.9,7.39h-1.68l-.63-1.7h-3l-.65,1.7h-1.54Zm.81,1.48-1.07,3h2.15Zm8.19-.31h-2.11V24.17h5.72v1.17h-2.12v6.22h-1.48Zm7.51-1.17h1.48v3h3v-3h1.48v7.39h-1.48V28.32h-3v3.24h-1.48Zm10.49,0h1.48v7.39h-1.48Zm11.43,7.29a7.51,7.51,0,0,1-1.68.23c-2.39,0-4.06-1.2-4.06-3.69a3.73,3.73,0,0,1,4.06-4,4.9,4.9,0,0,1,1.67.31l-.11,1.29a3.05,3.05,0,0,0-1.6-.39,2.47,2.47,0,0,0-2.49,2.45h0v.23a2.43,2.43,0,0,0,2.21,2.63h.3a4.13,4.13,0,0,0,1.62-.31Z" transform="translate(0)" fill="#fff"/>
    <path d="M103.63,13.43l-.74,2.22h-1l2.42-7.13h1.11l2.49,7.13h-1l-.76-2.24Zm2.34-.72-.7-2.05c-.16-.47-.26-.89-.37-1.3-.11.42-.22.86-.36,1.29l-.7,2.06Zm16.16-.17c-.05-1-.12-2.19-.11-3.08-.24.84-.54,1.72-.9,2.71l-1.28,3.48h-.7L118,12.26c-.34-1-.62-1.92-.82-2.77,0,.89-.07,2.08-.14,3.15l-.21,3H116l.5-7.13h1.17L118.83,12c.3.88.54,1.66.72,2.4.18-.72.43-1.5.75-2.4l1.27-3.45h1.19l.44,7.13h-.9Zm13.37-.21h-2.74V14.9h3.09v.75h-4V8.54h3.85v.77h-2.94v2.25h2.77Zm8.68-3.68A9.57,9.57,0,0,1,146,8.5a2.92,2.92,0,0,1,2.06.58,1.77,1.77,0,0,1,.56,1.35,1.87,1.87,0,0,1-1.34,1.82,1.78,1.78,0,0,1,1,1.44,11.34,11.34,0,0,0,.55,2h-1a9.26,9.26,0,0,1-.48-1.7c-.21-1-.59-1.35-1.43-1.39H145v3.05h-.92Zm.92,3.25h.9c1,0,1.61-.54,1.61-1.35S147,9.23,146,9.22a3.77,3.77,0,0,0-.91.08ZM158,8.54v7.11h-.92V8.54Zm13.79,6.9a4.57,4.57,0,0,1-1.88.34,3.33,3.33,0,0,1-3.52-3.61,3.55,3.55,0,0,1,3.35-3.74h.37a3.82,3.82,0,0,1,1.69.32l-.22.75a3.34,3.34,0,0,0-1.44-.3,2.65,2.65,0,0,0-2.78,2.94A2.59,2.59,0,0,0,170.07,15a3.69,3.69,0,0,0,1.5-.3Zm9.45-2-.74,2.22h-1l2.42-7.13H183l2.48,7.13h-1l-.72-2.22Zm2.34-.72-.7-2.05c-.16-.47-.26-.89-.37-1.3-.11.42-.22.86-.36,1.29l-.7,2.06Zm10.16,2.94V8.54h1L197,12.15a20.19,20.19,0,0,1,1.28,2.32c-.08-1-.11-1.82-.11-2.93v-3H199v7.11h-.93L195.84,12a22.61,22.61,0,0,1-1.31-2.38c.05.9.07,1.76.07,2.94v3Zm17.42,13.61-.74,2.24h-1l2.42-7.13h1.11l2.43,7.13h-1l-.76-2.24Zm2.34-.72-.7-2c-.16-.47-.26-.89-.37-1.3-.11.42-.22.86-.36,1.29l-.7,2.06Zm6.58,1.84a3.26,3.26,0,0,0,1.65.47c.94,0,1.49-.5,1.49-1.22s-.38-1-1.34-1.42c-1.16-.41-1.88-1-1.88-2a2,2,0,0,1,2.1-2h.2a3.25,3.25,0,0,1,1.58.35l-.25.75a2.84,2.84,0,0,0-1.35-.34c-1,0-1.34.58-1.34,1.07,0,.67.43,1,1.42,1.38,1.21.46,1.82,1,1.82,2.09s-.81,2-2.5,2a3.68,3.68,0,0,1-1.82-.46Zm8.94,0a3.26,3.26,0,0,0,1.65.47c.94,0,1.49-.5,1.49-1.22s-.38-1-1.34-1.42c-1.16-.41-1.88-1-1.88-2a2,2,0,0,1,2.1-2h.2a3.25,3.25,0,0,1,1.55.38l-.25.75a2.84,2.84,0,0,0-1.35-.34c-1,0-1.34.58-1.34,1.07,0,.67.43,1,1.42,1.38,1.21.46,1.82,1,1.82,2.09s-.8,2-2.48,2a3.68,3.68,0,0,1-1.82-.46Zm15.16-2.51c0,2.45-1.49,3.75-3.31,3.75s-3.2-1.46-3.2-3.62a3.44,3.44,0,0,1,3.11-3.74H241c1.85,0,3.15,1.49,3.15,3.61Zm-5.53.12c0,1.52.82,2.89,2.27,2.89s2.28-1.34,2.28-3c0-1.42-.74-2.9-2.27-2.9s-2.28,1.44-2.28,3Zm15.43,3.28a4.57,4.57,0,0,1-1.88.34A3.33,3.33,0,0,1,248.65,28,3.55,3.55,0,0,1,252,24.26h.37a3.81,3.81,0,0,1,1.69.32l-.22.75a3.34,3.34,0,0,0-1.44-.3,2.65,2.65,0,0,0-2.78,3,2.59,2.59,0,0,0,2.74,2.87,3.68,3.68,0,0,0,1.5-.3Zm5.8-6.89v7.13H259V24.38Zm6.49,4.88-.74,2.24h-1L267,24.37h1.11l2.43,7.13h-1l-.76-2.24Zm2.34-.72-.7-2c-.16-.47-.26-.89-.37-1.3-.11.42-.22.86-.36,1.29l-.7,2.06Zm7.24-3.38h-2.16v-.78H279v.78h-2.18V31.5h-.93Zm8.55-.78v7.13h-.92V24.38Zm11.42,3.49c0,2.45-1.49,3.75-3.31,3.75s-3.2-1.46-3.2-3.62a3.44,3.44,0,0,1,3.12-3.73h.19c1.87,0,3.17,1.48,3.17,3.6Zm-5.53.12c0,1.52.82,2.89,2.27,2.89s2.28-1.34,2.28-3c0-1.42-.74-2.9-2.27-2.9s-2.28,1.44-2.28,3Zm10.46,3.51V24.38h1L304.1,28a20.24,20.24,0,0,1,1.28,2.32c-.08-1-.11-1.82-.11-2.93v-3h.87v7.13h-.93L303,27.89a22.61,22.61,0,0,1-1.33-2.38c0,.9.07,1.75.07,2.94v3Z" transform="translate(0)" fill="#f2f2f2"/>
  </g>
  <g>
    <path d="M38.59,34.52" transform="translate(0)" fill="#231f20"/>
    <polygon points="38.91 26.04 38.91 26.04 38.91 26.04 38.91 26.04" fill="#fff"/>
    <polygon points="38.13 32.67 38.13 32.67 38.13 32.67 38.13 32.67" fill="#fff"/>
    <path d="M38.8,32.68a3.4,3.4,0,0,0,.5-.08,17.94,17.94,0,0,0,2.25-.54c.42-.13.84-.28,1.23-.44a15.39,15.39,0,0,0,3.57-2,15.16,15.16,0,0,0,2.25-2.09,15.58,15.58,0,0,0,1.3-1.72,15.77,15.77,0,0,0,1.25-2.33H63.24l.19.49a51.13,51.13,0,0,1,2.51,7.42L61.71,32h-.16v.82H71.9V32h-.15l-3.09-.68a39.49,39.49,0,0,1-2.39-5L56.94,2.63H55l-3.84,9.21C48.61,6,42.9,2.47,36.11,2.47h-.32c-6.8,0-12.5,3.58-15,9.37L16.94,2.63H15L5.63,26.37a39.48,39.48,0,0,1-2.39,5L.15,32H0v.81H10.34V32h-.16L6,31.37A51,51,0,0,1,8.46,24l.19-.49H20.74A15.69,15.69,0,0,0,22,25.81a15.4,15.4,0,0,0,1.3,1.72,15.11,15.11,0,0,0,2.25,2.09,15.4,15.4,0,0,0,3.57,2c.39.16.81.3,1.23.44a17.93,17.93,0,0,0,2.25.54c.37.07.78.12,1.2.17H34a12.36,12.36,0,0,0,2.41.07l-1.1-1.65h-.23a11.12,11.12,0,0,1-9-6.12,13.26,13.26,0,0,1-.68-1.55,17.31,17.31,0,0,1-1-5.88,14.57,14.57,0,0,1,3.35-9.9,10.69,10.69,0,0,1,7.87-3.61h.47A10.69,10.69,0,0,1,44,7.74a14.57,14.57,0,0,1,3.35,9.9,17.28,17.28,0,0,1-1,5.88,13,13,0,0,1-.68,1.55A11.13,11.13,0,0,1,37,31.17,2.84,2.84,0,0,1,38.8,32.68Zm-24-10.77a46.47,46.47,0,0,1-5.39-.25l.45-1.16c1.15-3,3.24-8.34,4.76-11.42L20,21.68a48,48,0,0,1-5.2.23ZM31,4.34h0a13.62,13.62,0,0,0-4.88,3.13,14.26,14.26,0,0,0-4,8.41,15.7,15.7,0,0,0-.14,2A14.27,14.27,0,0,0,28.1,29.5a13.83,13.83,0,0,0,3.14,1.61c.09,0,.16.12.14.21s-.2.08-.37,0l-.28-.09h0a14.8,14.8,0,0,1-2-.84,15.13,15.13,0,0,1-7.08-7.6l-1.82-4.37L15,6.82l.59-1.52,4.29,10.29.66,1.59h.12a13.55,13.55,0,0,1,.64-3.55,15,15,0,0,1,5.19-7.25A14.79,14.79,0,0,1,31,4h.34A3.63,3.63,0,0,1,31,4.34ZM50.25,22.79a15.14,15.14,0,0,1-7.08,7.6,14.76,14.76,0,0,1-2.31.94c-.16,0-.32,0-.35,0s.06-.16.15-.21a13.84,13.84,0,0,0,3.13-1.6A14.26,14.26,0,0,0,49.91,17.9a15.86,15.86,0,0,0-.14-2,14.27,14.27,0,0,0-4-8.41,13.61,13.61,0,0,0-4.88-3.13h0s-.41-.12-.37-.31.17-.08.32,0a14.78,14.78,0,0,1,4.58,2.37,15,15,0,0,1,5.19,7.25,13.55,13.55,0,0,1,.64,3.55h.12L52,15.59,56.31,5.3l.59,1.52-4.83,11.6Zm6.89-.88A48,48,0,0,1,52,21.68l5.34-12.6C58.87,12.16,61,17.55,62.1,20.5l.45,1.17A46.47,46.47,0,0,1,57.14,21.91Z" transform="translate(0)" fill="#fff"/>
    <path d="M29.57,11a1.9,1.9,0,0,1,2.07,1.71q0,.09,0,.18c0,1.71-1.27,2.11-2.38,2.11H27.19v-.22c.28,0,.47-.06.49-.14a.79.79,0,0,0,0-.25V11.63a.82.82,0,0,0,0-.25c0-.08-.21-.13-.49-.14V11Zm-.67,3.17c0,.5,0,.46.26.46.67,0,1.28-.32,1.28-1.75,0-1.08-.49-1.53-1.44-1.53h-.1Z" transform="translate(0)" fill="#fff"/>
    <path d="M40.77,12.88a2.12,2.12,0,0,1,2.22-2,2,2,0,0,1,2,2A2.15,2.15,0,0,1,42.81,15h0a2,2,0,0,1-2-2S40.77,12.92,40.77,12.88Zm3,.1c0-1.29-.51-1.75-1-1.75s-.77.24-.77,1.49.4,1.9.91,1.9.86-.11.86-1.62Z" transform="translate(0)" fill="#fff"/>
    <path d="M37.86,34.92a2.39,2.39,0,0,0,.19-1,2.21,2.21,0,0,0-.14-.8h0a2.57,2.57,0,0,0-1.54-1.44L36,31.56a1.79,1.79,0,0,1-.42-.19,1.58,1.58,0,0,1-.81-1.26v-.29A7.65,7.65,0,0,1,35,27.89a.2.2,0,0,0-.15-.09c-.13,0-.49.06-1,.91a3.52,3.52,0,0,0-.5,2.85,2.84,2.84,0,0,0,2,1.6l.5.17.61.26a1.93,1.93,0,0,1,1.14,1.27S37.66,35.12,37.86,34.92Z" transform="translate(0)" fill="#fff"/>
    <path d="M38.69,26.53h0a2.78,2.78,0,0,0-2-1.53L36,24.83a4.11,4.11,0,0,1-.87-.27,1.3,1.3,0,0,1-.84-1.18v-.17a9,9,0,0,1,.34-2.09.09.09,0,0,0-.07-.1,2.06,2.06,0,0,0-1.14,1,3.21,3.21,0,0,0-.51,2.83,3,3,0,0,0,2.41,1.61h.09l.28,4.1h0l.18.1.14.06h.11l.19.06.22-4,.11.06c.51.28.77.62.77,1a.91.91,0,0,1,0,.13c-.08.59-.35,1.86-.44,2.19v.08c.16,0,.65-.71.89-1a3.92,3.92,0,0,0,.88-2.17A1.69,1.69,0,0,0,38.69,26.53Z" transform="translate(0)" fill="#fff"/>
    <path d="M39.09,19.5A2.85,2.85,0,0,0,36.91,18a7,7,0,0,0-.89-.16,7.6,7.6,0,0,1-1.27-.34,1.19,1.19,0,0,1-.88-1v-.17a8.75,8.75,0,0,1,.34-2.09c0-.09-.06-.1-.07-.1a2.06,2.06,0,0,0-1.14,1,3.8,3.8,0,0,0-.7,2,2,2,0,0,0,.13.72A3.36,3.36,0,0,0,35,19.47h0c.06.92.26,3.8.26,3.9l.42.16.25.07h.3l.34.08c0-.18.15-3,.19-3.87l.15.06A1.18,1.18,0,0,1,37.73,21v.11a6.89,6.89,0,0,1-.46,2.15c0,.08,0,.1.06.1s.64-.29,1.08-1a4.42,4.42,0,0,0,.8-2.21A2,2,0,0,0,39.09,19.5Z" transform="translate(0)" fill="#fff"/>
    <path d="M42.31,9.29a6.72,6.72,0,0,0-.9-1.86,3.3,3.3,0,0,0-1.11-1,5,5,0,0,0-2-.42h-.08A4.87,4.87,0,0,0,34.1,5a3.39,3.39,0,0,0-2.8,3.58v0c0,2.46,1.67,3.18,3.27,3.57h0c.06.95.27,4,.28,4.08a5.78,5.78,0,0,0,.6.22l.37.09h.25a7.57,7.57,0,0,1,.78.15c0-.2.09-3.16.11-4l.18.07a1.15,1.15,0,0,1,.83,1v.12A7.14,7.14,0,0,1,37.51,16a.08.08,0,0,0,.07.09,2.06,2.06,0,0,0,1.14-1,3.2,3.2,0,0,0,.59-2.65,3,3,0,0,0-2.17-1.67,9.15,9.15,0,0,0-1.26-.29A4.53,4.53,0,0,1,34.3,10a1.79,1.79,0,0,1-1-1.59A1.7,1.7,0,0,1,34.14,7l.18-.1.16,2a4.06,4.06,0,0,0,.76.35l.49.13h.13a11.21,11.21,0,0,1,1.25.27c0-.21.1-1.77.1-1.81a.62.62,0,0,0,0-.28l-.06-.1h0l.28.32a5.14,5.14,0,0,1,.42.64,2.35,2.35,0,0,0,.26.39c1,.9,2.41.83,4.08.65a.32.32,0,0,0,.12-.19Z" transform="translate(0)" fill="#fff"/>
    <path d="M35.66,4.1a7.43,7.43,0,0,1,1.65.11L37.41,2c0-.83-1-1-1.61-1.06a1.68,1.68,0,0,0-1.47.43,1.17,1.17,0,0,0-.23.76s.09,2,.1,2.18A12.64,12.64,0,0,1,35.66,4.1Z" transform="translate(0)" fill="#fff"/>
    <path d="M64.5,9.19a3.25,3.25,0,1,1,3.25-3.25A3.25,3.25,0,0,1,64.5,9.19Zm0-5.89A2.65,2.65,0,1,0,67.1,6s0,0,0-.06A2.63,2.63,0,0,0,64.5,3.3Zm1.64,4.36h-.77l-.65-1.25h-.87V7.65h-.67V4.07H64.9a1.12,1.12,0,0,1,1.23,1.17,1.12,1.12,0,0,1-.75,1.09ZM64.9,5.79a.51.51,0,0,0,.56-.55.49.49,0,0,0-.56-.55H63.85v1.1Z" transform="translate(0)" fill="#fff"/>
  </g>
</svg>
